<svg width="40" height="40" viewBox="0 0 40 40" fill="none" xmlns="http://www.w3.org/2000/svg">
<g clip-path="url(#clip0_89_299)">
<path d="M14.9311 33.7063C13.6602 33.7096 12.4425 34.2168 11.545 35.1166C10.6475 36.0164 10.1436 37.2354 10.1436 38.5063C10.1436 38.6721 10.2094 38.831 10.3266 38.9482C10.4438 39.0655 10.6028 39.1313 10.7686 39.1313H19.1061C19.2718 39.1313 19.4308 39.0655 19.548 38.9482C19.6652 38.831 19.7311 38.6721 19.7311 38.5063C19.7319 37.8757 19.6083 37.2512 19.3674 36.6684C19.1264 36.0857 18.7729 35.5562 18.327 35.1104C17.8811 34.6645 17.3516 34.3109 16.7689 34.07C16.1862 33.8291 15.5616 33.7055 14.9311 33.7063Z" fill="white"/>
<path d="M14.9311 33.2188C16.3497 33.2188 17.4998 32.0687 17.4998 30.65C17.4998 29.2314 16.3497 28.0813 14.9311 28.0813C13.5124 28.0813 12.3623 29.2314 12.3623 30.65C12.3623 32.0687 13.5124 33.2188 14.9311 33.2188Z" fill="white"/>
<path d="M4.7875 33.7063C3.51663 33.7096 2.29894 34.2168 1.40146 35.1166C0.503992 36.0164 -4.30932e-06 37.2354 0 38.5063C0 38.6721 0.0658487 38.831 0.183059 38.9482C0.300269 39.0655 0.45924 39.1313 0.625 39.1313H8.9625C9.12826 39.1313 9.28723 39.0655 9.40444 38.9482C9.52165 38.831 9.5875 38.6721 9.5875 38.5063C9.58832 37.8757 9.46473 37.2512 9.2238 36.6684C8.98287 36.0857 8.62933 35.5562 8.18345 35.1104C7.73756 34.6645 7.20809 34.3109 6.62535 34.07C6.04262 33.8291 5.41808 33.7055 4.7875 33.7063Z" fill="white"/>
<path d="M4.7875 33.2188C6.20618 33.2188 7.35625 32.0687 7.35625 30.65C7.35625 29.2314 6.20618 28.0813 4.7875 28.0813C3.36882 28.0813 2.21875 29.2314 2.21875 30.65C2.21875 32.0687 3.36882 33.2188 4.7875 33.2188Z" fill="white"/>
<path d="M25.0752 33.7062C23.8049 33.7095 22.5879 34.2169 21.6914 35.1169C20.7949 36.0169 20.2923 37.2359 20.2939 38.5062C20.2939 38.672 20.3598 38.8309 20.477 38.9481C20.5942 39.0653 20.7532 39.1312 20.9189 39.1312H29.2564C29.4222 39.1312 29.5812 39.0653 29.6984 38.9481C29.8156 38.8309 29.8814 38.672 29.8814 38.5062C29.8815 37.8753 29.7571 37.2506 29.5155 36.6679C29.2739 36.0851 28.9197 35.5557 28.4734 35.1099C28.027 34.6641 27.4971 34.3106 26.914 34.0698C26.3309 33.8289 25.7061 33.7054 25.0752 33.7062ZM27.6439 30.6249C27.6452 30.1151 27.4951 29.6164 27.2126 29.192C26.9301 28.7676 26.528 28.4366 26.0572 28.2409C25.5865 28.0452 25.0682 27.9937 24.5681 28.0929C24.068 28.192 23.6087 28.4374 23.2482 28.7979C22.8877 29.1584 22.6423 29.6178 22.5431 30.1179C22.444 30.618 22.4955 31.1362 22.6912 31.607C22.8868 32.0778 23.2178 32.4799 23.6423 32.7623C24.0667 33.0448 24.5654 33.1949 25.0752 33.1937C25.7565 33.1937 26.4098 32.9231 26.8916 32.4413C27.3733 31.9596 27.6439 31.3062 27.6439 30.6249ZM35.2189 33.7062C33.9481 33.7095 32.7304 34.2167 31.8329 35.1165C30.9354 36.0163 30.4314 37.2353 30.4314 38.5062C30.4314 38.672 30.4973 38.8309 30.6145 38.9481C30.7317 39.0653 30.8907 39.1312 31.0564 39.1312H39.3752C39.541 39.1312 39.6999 39.0653 39.8171 38.9481C39.9344 38.8309 40.0002 38.672 40.0002 38.5062C40.0019 37.2359 39.4993 36.0169 38.6028 35.1169C37.7063 34.2169 36.4892 33.7095 35.2189 33.7062Z" fill="white"/>
<path d="M35.2187 33.2188C36.6373 33.2188 37.7874 32.0687 37.7874 30.65C37.7874 29.2314 36.6373 28.0813 35.2187 28.0813C33.8 28.0813 32.6499 29.2314 32.6499 30.65C32.6499 32.0687 33.8 33.2188 35.2187 33.2188Z" fill="white"/>
<path d="M0.625 1.38745H39.375C39.4074 1.38744 39.4386 1.40014 39.4619 1.42261C39.4852 1.44521 39.499 1.47611 39.5 1.50854V24.406C39.5 24.4391 39.4872 24.4714 39.4639 24.4949C39.4404 24.5183 39.4082 24.531 39.375 24.531H0.625C0.591847 24.531 0.559574 24.5183 0.536133 24.4949C0.512752 24.4714 0.5 24.4391 0.5 24.406V1.51245C0.5 1.4793 0.512691 1.44703 0.536133 1.42358C0.559575 1.40014 0.591848 1.38745 0.625 1.38745Z" stroke="white"/>
<rect x="7.4458" y="18.0239" width="10.3456" height="1.44578" rx="0.722889" transform="rotate(-90 7.4458 18.0239)" fill="white"/>
<rect x="10.1567" y="8.35669" width="4.15661" height="1.35681" rx="0.678403" transform="rotate(180 10.1567 8.35669)" fill="white"/>
<rect x="10.1567" y="18.0239" width="4.15661" height="1.35681" rx="0.678403" transform="rotate(180 10.1567 18.0239)" fill="white"/>
<rect x="23.7109" y="18.0239" width="10.3456" height="1.44578" rx="0.722889" transform="rotate(-90 23.7109 18.0239)" fill="white"/>
<rect x="26.4219" y="8.35669" width="4.15661" height="1.35681" rx="0.678403" transform="rotate(180 26.4219 8.35669)" fill="white"/>
<rect x="26.4219" y="18.0239" width="4.15661" height="1.35681" rx="0.678403" transform="rotate(180 26.4219 18.0239)" fill="white"/>
<rect x="12.5054" y="18.0239" width="11.024" height="1.44578" rx="0.722889" transform="rotate(-90 12.5054 18.0239)" fill="white"/>
<rect x="18.8311" y="18.0239" width="11.024" height="1.44578" rx="0.722889" transform="rotate(-90 18.8311 18.0239)" fill="white"/>
<rect x="21.0518" y="13.4053" width="10.7975" height="1.44578" rx="0.722889" transform="rotate(-157.73 21.0518 13.4053)" fill="white"/>
<rect x="21.0532" y="17.1958" width="10.7975" height="1.44578" rx="0.722889" transform="rotate(-157.73 21.0532 17.1958)" fill="white"/>
<rect x="31.1206" y="18.0239" width="10.3456" height="1.44578" rx="0.722889" transform="rotate(-90 31.1206 18.0239)" fill="white"/>
<rect x="36.0005" y="8.35669" width="8.1325" height="1.35681" rx="0.678403" transform="rotate(180 36.0005 8.35669)" fill="white"/>
</g>
<defs>
<clipPath id="clip0_89_299">
<rect width="40" height="40" fill="white"/>
</clipPath>
</defs>
</svg>
