<svg width="117" height="43" viewBox="0 0 117 43" fill="none" xmlns="http://www.w3.org/2000/svg">
<rect x="5.6386" y="42.9938" width="40.348" height="5.63854" rx="2.80624" transform="rotate(-90 5.6386 42.9938)" fill="#1FC7D8"/>
<rect x="16.2109" y="5.29155" width="16.2108" height="5.29155" rx="2.63355" transform="rotate(180 16.2109 5.29155)" fill="#1FC7D8"/>
<rect x="16.2109" y="42.9938" width="16.2108" height="5.29155" rx="2.63355" transform="rotate(180 16.2109 42.9938)" fill="#1FC7D8"/>
<rect x="69.073" y="42.9938" width="40.348" height="5.63854" rx="2.80624" transform="rotate(-90 69.073 42.9938)" fill="#1FC7D8"/>
<rect x="79.6453" y="5.29155" width="16.2108" height="5.29155" rx="2.63355" transform="rotate(180 79.6453 5.29155)" fill="#1FC7D8"/>
<rect x="79.6453" y="42.9938" width="16.2108" height="5.29155" rx="2.63355" transform="rotate(180 79.6453 42.9938)" fill="#1FC7D8"/>
<rect x="25.3704" y="42.9938" width="42.9938" height="5.63854" rx="2.80624" transform="rotate(-90 25.3704 42.9938)" fill="#E83171"/>
<rect x="50.04" y="42.9938" width="42.9938" height="5.63854" rx="2.80624" transform="rotate(-90 50.04 42.9938)" fill="#E83171"/>
<rect x="58.7021" y="24.98" width="42.1103" height="5.63854" rx="2.80624" transform="rotate(-157.73 58.7021 24.98)" fill="#E83171"/>
<rect x="58.708" y="39.7638" width="42.1103" height="5.63854" rx="2.80624" transform="rotate(-157.73 58.708 39.7638)" fill="#E83171"/>
<rect x="97.9702" y="42.9938" width="40.348" height="5.63854" rx="2.80624" transform="rotate(-90 97.9702 42.9938)" fill="#1FC7D8"/>
<rect x="117" y="5.29155" width="31.7167" height="5.29155" rx="2.63355" transform="rotate(180 117 5.29155)" fill="#1FC7D8"/>
</svg>
