<svg width="168" height="62" viewBox="0 0 168 62" fill="none" xmlns="http://www.w3.org/2000/svg">
<rect x="8.09644" y="61.7346" width="57.9355" height="8.09634" rx="3" transform="rotate(-90 8.09644 61.7346)" fill="#1FC7D8"/>
<rect x="23.277" y="7.59818" width="23.277" height="7.59811" rx="3" transform="rotate(180 23.277 7.59818)" fill="#1FC7D8"/>
<rect x="23.277" y="61.7346" width="23.277" height="7.59811" rx="3" transform="rotate(180 23.277 61.7346)" fill="#1FC7D8"/>
<rect x="99.181" y="61.7346" width="57.9355" height="8.09634" rx="3" transform="rotate(-90 99.181 61.7346)" fill="#1FC7D8"/>
<rect x="114.362" y="7.59818" width="23.277" height="7.59811" rx="3" transform="rotate(180 114.362 7.59818)" fill="#1FC7D8"/>
<rect x="114.362" y="61.7346" width="23.277" height="7.59811" rx="3" transform="rotate(180 114.362 61.7346)" fill="#1FC7D8"/>
<rect x="36.4292" y="61.7346" width="61.7346" height="8.09634" rx="3" transform="rotate(-90 36.4292 61.7346)" fill="#E83171"/>
<rect x="71.8522" y="61.7346" width="61.7346" height="8.09634" rx="3" transform="rotate(-90 71.8522 61.7346)" fill="#E83171"/>
<rect x="84.2897" y="35.8688" width="60.466" height="8.09634" rx="3" transform="rotate(-157.73 84.2897 35.8688)" fill="#E83171"/>
<rect x="84.2982" y="57.0966" width="60.466" height="8.09634" rx="3" transform="rotate(-157.73 84.2982 57.0966)" fill="#E83171"/>
<rect x="140.674" y="61.7346" width="57.9355" height="8.09634" rx="3" transform="rotate(-90 140.674 61.7346)" fill="#1FC7D8"/>
<rect x="168" y="7.59813" width="45.5419" height="7.59811" rx="3" transform="rotate(180 168 7.59813)" fill="#1FC7D8"/>
</svg>
